<svg xmlns="http://www.w3.org/2000/svg" xmlns:xlink="http://www.w3.org/1999/xlink" version="1.1" id="Layer_1" x="0" y="0" width="294.3" height="201.3" viewBox="0 0 294.3 201.3" xml:space="preserve"><style type="text/css">
	.st0{clip-path:url(#SVGID_4_);fill:#A94142;}
	.st1{clip-path:url(#SVGID_2_);}
	.st2{clip-path:url(#SVGID_4_);fill:#1C81B1;}
	.st3{fill:none;stroke:#000000;stroke-width:7;stroke-miterlimit:10;}
</style><path class="st3" d="M13 132.3c18-7.4 34.5-20.7 50.9-31.1C80.4 90.7 99.4 77.8 111 61.6c4.5-6.3 17.5-34.9 2.9-36.3 -10.9-1-30.1 33.8-34.7 41.7 -8 13.6-16.1 28.9-21.7 43.7 -6.7 17.4-10 35.6 15.5 32.7 23.5-2.7 27.3-34.9 46.9-44.9 -9.2 5.7-18.4 14.2-21.6 24.9 -3.8 12.6 2.4 23.8 16.8 21 16.2-3.2 25-41 6.1-44 8.9 23.7 37.8 11.6 52.1 1.4 9.5-6.8 21.3-4.4 27.4 7.1 4.7-17.1-31-11.9-38.1-4.6 -23.3 23.9 15.7 42.3 33.4 21.9 17.2-19.9-2.7-36.9-2.9-6.1 -0.1 10.8 8.4 26.6 4.1 37.2 -4.3 10.6-6.9 27.2-26.1 34.9 -13.3 5.3-22.6-0.7-26.5-4.7 -6.1-6.2 4.7-21.9 9.2-23.3 16-5 33.8-1.8 49.6-8.4 8.9-3.7 14.3-13.3 18.2-21.6 4.4-9.2 2.8-23.7 7.5-31.7 4.1-6.9 33.5-9.6 38.9-2.1 -12-4.4-27.6-6.5-35.6 3.8 -13.4 17.1-4.8 37.9 16.7 40.4 17.2 2 26.9-5.9 27.1-24.1 0.1-12.3-5.1-17.5-16.1-21.9"/><defs><rect id="SVGID_1_" x="159.8" y="-10.9" width="122" height="117.6"/></defs><clipPath id="SVGID_2_"><use xlink:href="#SVGID_1_"/></clipPath><g class="st1"><defs><rect id="SVGID_3_" x="159.8" y="-10.9" width="122" height="117.6"/></defs><clipPath id="SVGID_4_"><use xlink:href="#SVGID_3_"/></clipPath><path class="st2" d="M183.6 28.8v-0.5c0.1 0 0.1 0 0.1 0.1 0.1 0.1 0.2 0.3 0.3 0.4 0.2 0.3 0.4 0.6 0.5 0.9 0.2 0.4 0.4 0.8 0.7 1.1 0.3 0.5 0.6 1 0.9 1.5 0.2 0.4 0.4 0.7 0.6 1.1 0.3 0.5 0.6 1 0.9 1.5 0.2 0.4 0.4 0.7 0.6 1.1 0.2 0.4 0.5 0.8 0.7 1.2 0.2 0.4 0.4 0.7 0.6 1.1 0.2 0.3 0.4 0.7 0.6 1 0.2 0.4 0.4 0.7 0.6 1.1 0.3 0.5 0.6 1 0.9 1.5 0.3 0.5 0.6 1 0.9 1.5 0.4 0.7 0.8 1.3 1.2 2 0.4 0.7 0.8 1.3 1.2 2 0.4 0.6 0.8 1.3 1.2 1.9 0.5 0.8 0.9 1.6 1.4 2.4 0.1 0.1 0.2 0.2 0.2 0.3 0.1 0.1 0.1 0.1 0.2 0 0-0.1 0-0.1 0-0.2 0-0.3 0-0.5 0-0.8 0-1.6 0-3.2 0-4.9 0-2.2 0-4.4 0.1-6.6 0-1.5 0-3 0.1-4.4 0-1.4 0-2.8 0.1-4.1 0-2.1 0-4.2 0.1-6.4 0-2.5 0-5 0-7.5 0-0.3 0-0.6 0-0.9 0-0.1 0.1-0.1 0.1-0.2 0 0 0.1 0.1 0.1 0.1 0.2 0.4 0.4 0.8 0.5 1.2 0.1 0.3 0.2 0.6 0.3 0.9 0.2 0.4 0.3 0.8 0.5 1.1 0.1 0.3 0.2 0.5 0.3 0.8 0.1 0.3 0.3 0.6 0.4 1 0.1 0.3 0.2 0.6 0.4 0.9 0.1 0.2 0.2 0.5 0.3 0.7 0.1 0.3 0.3 0.7 0.4 1 0.1 0.3 0.2 0.6 0.4 0.9 0.1 0.3 0.3 0.6 0.4 0.9 0.1 0.3 0.2 0.6 0.3 0.9 0.1 0.2 0.2 0.5 0.3 0.7 0.1 0.3 0.3 0.6 0.4 0.9 0.1 0.3 0.2 0.6 0.3 0.9 0.1 0.2 0.2 0.5 0.3 0.7 0.1 0.3 0.3 0.6 0.4 0.9 0.1 0.2 0.2 0.5 0.3 0.7 0.1 0.3 0.2 0.6 0.4 1 0.1 0.3 0.3 0.6 0.4 0.9 0.1 0.3 0.2 0.6 0.3 0.9 0.1 0.2 0.2 0.5 0.3 0.7 0.1 0.3 0.3 0.6 0.4 1 0.1 0.3 0.2 0.6 0.4 0.9 0.1 0.3 0.3 0.6 0.4 0.9 0.2 0.4 0.3 0.8 0.5 1.2 0.1 0.2 0.2 0.5 0.3 0.7 0.1 0.3 0.2 0.6 0.4 0.9 0.1 0.2 0.2 0.4 0.3 0.6 0.1 0.3 0.2 0.5 0.3 0.8 0.1 0.3 0.3 0.6 0.4 0.9 0.1 0.3 0.2 0.6 0.4 0.9 0.1 0.3 0.3 0.6 0.4 0.9 0.2 0.4 0.3 0.8 0.5 1.2 0.1 0.3 0.2 0.5 0.3 0.8 0.1 0.3 0.2 0.6 0.4 1 0.1 0.3 0.3 0.6 0.4 0.9 0.1 0.3 0.2 0.6 0.4 1 0.1 0.2 0.2 0.5 0.3 0.7 0.1 0.1 0.2 0.2 0.3 0.3 0-0.1 0.1-0.2 0.1-0.4 0.1-0.6 0.2-1.2 0.4-1.8 0.1-0.6 0.3-1.2 0.4-1.8 0.1-0.6 0.2-1.1 0.3-1.7 0.2-0.8 0.3-1.5 0.5-2.3 0.1-0.5 0.2-1 0.3-1.4 0.1-0.6 0.3-1.2 0.4-1.7 0.1-0.6 0.2-1.1 0.3-1.7 0.2-0.8 0.3-1.6 0.5-2.4 0-0.1 0-0.1 0-0.2 0.1-0.6 0.3-1.2 0.4-1.9 0.1-0.6 0.3-1.2 0.4-1.9 0.1-0.6 0.3-1.2 0.4-1.8 0-0.2 0.1-0.4 0.1-0.6 0-0.2 0.1-0.4 0.1-0.6 0-0.2 0.1-0.4 0.1-0.6 0-0.2 0.1-0.3 0.1-0.5 0-0.2 0.1-0.4 0.1-0.7 0-0.2 0.1-0.3 0.1-0.5 0.1-0.6 0.2-1.1 0.3-1.7 0.1-0.6 0.3-1.2 0.4-1.8 0.2-0.8 0.3-1.5 0.5-2.3 0.1-0.5 0.2-0.9 0.3-1.4 0.1-0.6 0.2-1.2 0.4-1.8 0.1-0.5 0.3-1.1 0.4-1.6 0.2-0.9 0.4-1.8 0.5-2.6 0-0.1 0.1-0.1 0.1-0.2 0 0 0 0 0.1 0v0.6V64v18.8c0 0.4 0 0.3-0.3 0.3 -1 0-1.9 0-2.9 0 -0.8 0-1.6 0-2.4-0.1 -1.4-0.1-2.7-0.1-4.1-0.2 -0.5 0-1 0-1.4-0.1 -1.5-0.1-3.1-0.3-4.6-0.5 -0.7-0.1-1.4-0.2-2-0.3 -0.6-0.1-1.2-0.2-1.8-0.3 -0.5-0.1-0.9-0.1-1.4-0.2 -0.8-0.2-1.6-0.3-2.4-0.5 -0.4-0.1-0.8-0.2-1.2-0.4 -0.4-0.1-0.8-0.3-1.2-0.5 -0.5-0.2-1-0.5-1.4-0.9 -0.4-0.4-0.6-0.8-0.6-1.4 0-0.3 0-0.5 0-0.8 -0.1-1-0.2-1.9-0.3-2.9 -0.1-0.9-0.3-1.9-0.4-2.8 -0.1-0.7-0.2-1.4-0.3-2 0-0.1-0.1-0.3-0.1-0.4 0-0.2-0.1-0.3-0.1-0.5 -0.1-0.6-0.2-1.2-0.4-1.8 0 0 0-0.1 0-0.1 -0.1-0.6-0.3-1.2-0.4-1.9 0-0.2-0.1-0.3-0.1-0.5 0-0.2-0.1-0.4-0.1-0.6 0-0.2-0.1-0.4-0.1-0.6 0-0.2-0.1-0.5-0.1-0.7 -0.1-0.6-0.2-1.1-0.3-1.7 -0.1-0.4-0.2-0.9-0.3-1.3 -0.1-0.6-0.3-1.2-0.4-1.8 -0.1-0.6-0.2-1.2-0.3-1.8 0-0.1 0-0.1-0.1-0.2 -0.1-0.3-0.1-0.6-0.2-0.8 0-0.1 0-0.2-0.1-0.4 -0.1-0.7-0.3-1.4-0.4-2.2 0-0.1-0.1-0.3-0.1-0.4 -0.1-0.6-0.3-1.3-0.4-1.9 -0.1-0.6-0.2-1.2-0.3-1.8 -0.1-0.7-0.3-1.3-0.4-2 -0.1-0.6-0.2-1.3-0.4-1.9 -0.1-0.7-0.3-1.4-0.4-2.1 -0.1-0.5-0.2-0.9-0.3-1.3 0-0.1-0.1-0.2-0.1-0.4 -0.1-0.6-0.3-1.2-0.4-1.8 -0.1-0.7-0.3-1.4-0.4-2.1 -0.1-0.4-0.1-0.7-0.2-1.1 -0.1-0.6-0.3-1.2-0.4-1.9 -0.1-0.6-0.2-1.2-0.4-1.8 0-0.1-0.1-0.2-0.1-0.3 0-0.2-0.1-0.3-0.1-0.5 -0.1-0.6-0.2-1.2-0.3-1.7C183.8 28.9 183.8 28.8 183.6 28.8"/><path class="st0" d="M257.9 28.8v-0.5c-0.1 0-0.1 0-0.1 0.1 -0.1 0.1-0.2 0.3-0.3 0.4 -0.2 0.3-0.4 0.6-0.5 0.9 -0.2 0.4-0.4 0.8-0.7 1.1 -0.3 0.5-0.6 1-0.9 1.5 -0.2 0.4-0.4 0.7-0.6 1.1 -0.3 0.5-0.6 1-0.9 1.5 -0.2 0.4-0.4 0.7-0.6 1.1 -0.2 0.4-0.5 0.8-0.7 1.2 -0.2 0.4-0.4 0.7-0.6 1.1 -0.2 0.3-0.4 0.7-0.6 1 -0.2 0.4-0.4 0.7-0.6 1.1 -0.3 0.5-0.6 1-0.9 1.5 -0.3 0.5-0.6 1-0.9 1.5 -0.4 0.7-0.8 1.3-1.2 2 -0.4 0.7-0.8 1.3-1.2 2 -0.4 0.6-0.8 1.3-1.2 1.9 -0.5 0.8-0.9 1.6-1.4 2.4 -0.1 0.1-0.2 0.2-0.2 0.3 -0.1 0.1-0.1 0.1-0.2 0 0-0.1 0-0.1 0-0.2 0-0.3 0-0.5 0-0.8 0-1.6 0-3.2 0-4.9 0-2.2 0-4.4-0.1-6.6 0-1.5 0-3-0.1-4.4 0-1.4 0-2.8-0.1-4.1 0-2.1 0-4.2-0.1-6.4 0-2.5 0-5 0-7.5 0-0.3 0-0.6 0-0.9 0-0.1-0.1-0.1-0.1-0.2 0 0-0.1 0.1-0.1 0.1 -0.2 0.4-0.4 0.8-0.5 1.2 -0.1 0.3-0.2 0.6-0.3 0.9 -0.2 0.4-0.3 0.8-0.5 1.1 -0.1 0.3-0.2 0.5-0.3 0.8 -0.1 0.3-0.3 0.6-0.4 1 -0.1 0.3-0.2 0.6-0.4 0.9 -0.1 0.2-0.2 0.5-0.3 0.7 -0.1 0.3-0.3 0.7-0.4 1 -0.1 0.3-0.2 0.6-0.4 0.9 -0.1 0.3-0.3 0.6-0.4 0.9 -0.1 0.3-0.2 0.6-0.3 0.9 -0.1 0.2-0.2 0.5-0.3 0.7 -0.1 0.3-0.3 0.6-0.4 0.9 -0.1 0.3-0.2 0.6-0.3 0.9 -0.1 0.2-0.2 0.5-0.3 0.7 -0.1 0.3-0.3 0.6-0.4 0.9 -0.1 0.2-0.2 0.5-0.3 0.7 -0.1 0.3-0.2 0.6-0.4 1 -0.1 0.3-0.3 0.6-0.4 0.9 -0.1 0.3-0.2 0.6-0.3 0.9 -0.1 0.2-0.2 0.5-0.3 0.7 -0.1 0.3-0.3 0.6-0.4 1 -0.1 0.3-0.2 0.6-0.4 0.9 -0.1 0.3-0.3 0.6-0.4 0.9 -0.2 0.4-0.3 0.8-0.5 1.2 -0.1 0.2-0.2 0.5-0.3 0.7 -0.1 0.3-0.2 0.6-0.4 0.9 -0.1 0.2-0.2 0.4-0.3 0.6 -0.1 0.3-0.2 0.5-0.3 0.8 -0.1 0.3-0.3 0.6-0.4 0.9 -0.1 0.3-0.2 0.6-0.4 0.9 -0.1 0.3-0.3 0.6-0.4 0.9 -0.2 0.4-0.3 0.8-0.5 1.2 -0.1 0.3-0.2 0.5-0.3 0.8 -0.1 0.3-0.2 0.6-0.4 1 -0.1 0.3-0.3 0.6-0.4 0.9 -0.1 0.3-0.2 0.6-0.4 1 -0.1 0.2-0.2 0.5-0.3 0.7 -0.1 0.1-0.2 0.2-0.3 0.3 0-0.1-0.1-0.2-0.1-0.4 -0.1-0.6-0.2-1.2-0.4-1.8 -0.1-0.6-0.3-1.2-0.4-1.8 -0.1-0.6-0.2-1.1-0.3-1.7 -0.2-0.8-0.3-1.5-0.5-2.3 -0.1-0.5-0.2-1-0.3-1.4 -0.1-0.6-0.3-1.2-0.4-1.7 -0.1-0.6-0.2-1.1-0.3-1.7 -0.2-0.8-0.3-1.6-0.5-2.4 0-0.1 0-0.1 0-0.2 -0.1-0.6-0.3-1.2-0.4-1.9 -0.1-0.6-0.3-1.2-0.4-1.9 -0.1-0.6-0.2-1.2-0.4-1.8 0-0.2-0.1-0.4-0.1-0.6 0-0.2-0.1-0.4-0.1-0.6 0-0.2-0.1-0.4-0.1-0.6 0-0.2-0.1-0.3-0.1-0.5 -0.1-0.2-0.1-0.4-0.1-0.7 0-0.2-0.1-0.3-0.1-0.5 -0.1-0.6-0.2-1.1-0.3-1.7 -0.1-0.6-0.3-1.2-0.4-1.8 -0.2-0.8-0.3-1.5-0.5-2.3 -0.1-0.5-0.2-0.9-0.3-1.4 -0.1-0.6-0.2-1.2-0.4-1.8 -0.1-0.5-0.3-1.1-0.4-1.6 -0.2-0.9-0.4-1.8-0.5-2.6 0-0.1 0-0.1-0.1-0.2 0 0 0 0-0.1 0v0.6V64v18.8c0 0.4 0 0.3 0.3 0.3 1 0 1.9 0 2.9 0 0.8 0 1.6 0 2.4-0.1 1.4-0.1 2.7-0.1 4.1-0.2 0.5 0 1 0 1.4-0.1 1.5-0.1 3.1-0.3 4.6-0.5 0.7-0.1 1.4-0.2 2-0.3 0.6-0.1 1.2-0.2 1.8-0.3 0.5-0.1 0.9-0.1 1.4-0.2 0.8-0.2 1.6-0.3 2.4-0.5 0.4-0.1 0.8-0.2 1.2-0.4 0.4-0.1 0.8-0.3 1.2-0.5 0.5-0.2 1-0.5 1.4-0.9 0.4-0.4 0.6-0.8 0.6-1.4 0-0.3 0-0.5 0-0.8 0.1-1 0.2-1.9 0.3-2.9 0.1-0.9 0.3-1.9 0.4-2.8 0.1-0.7 0.2-1.4 0.3-2 0-0.1 0.1-0.3 0.1-0.4 0-0.2 0.1-0.3 0.1-0.5 0.1-0.6 0.2-1.2 0.4-1.8 0 0 0-0.1 0-0.1 0.1-0.6 0.3-1.2 0.4-1.9 0-0.2 0.1-0.3 0.1-0.5 0-0.2 0.1-0.4 0.1-0.6 0-0.2 0.1-0.4 0.1-0.6 0-0.2 0.1-0.5 0.1-0.7 0.1-0.6 0.2-1.1 0.3-1.7 0.1-0.4 0.2-0.9 0.3-1.3 0.1-0.6 0.3-1.2 0.4-1.8 0.1-0.6 0.2-1.2 0.3-1.8 0-0.1 0-0.1 0-0.2 0.1-0.3 0.1-0.6 0.2-0.8 0-0.1 0.1-0.2 0.1-0.4 0.1-0.7 0.3-1.4 0.4-2.2 0-0.1 0.1-0.3 0.1-0.4 0.1-0.6 0.3-1.3 0.4-1.9 0.1-0.6 0.2-1.2 0.3-1.8 0.1-0.7 0.3-1.3 0.4-2 0.1-0.6 0.2-1.3 0.4-1.9 0.1-0.7 0.3-1.4 0.4-2.1 0.1-0.5 0.2-0.9 0.3-1.3 0-0.1 0.1-0.2 0.1-0.4 0.1-0.6 0.3-1.2 0.4-1.8 0.1-0.7 0.3-1.4 0.4-2.1 0.1-0.4 0.1-0.7 0.2-1.1 0.1-0.6 0.3-1.2 0.4-1.9 0.1-0.6 0.2-1.2 0.4-1.8 0-0.1 0.1-0.2 0.1-0.3 0-0.2 0.1-0.3 0.1-0.5 0.1-0.6 0.2-1.2 0.3-1.7C257.8 28.9 257.8 28.8 257.9 28.8"/></g></svg>